<svg width="426" height="120" viewBox="0 0 426 120" fill="none" xmlns="http://www.w3.org/2000/svg">
<rect width="120" height="120" rx="15" fill="black"/>
<path d="M14.76 66.832V61.712L41.64 45.776V51.152L19.56 64.016V64.528L41.64 77.392V82.768L14.76 66.832ZM47.951 91.664L64.655 34.64H69.263L52.559 91.664H47.951ZM77.635 77.392L99.715 64.528V64.016L77.635 51.152V45.776L104.515 61.712V66.832L77.635 82.768V77.392Z" fill="white"/>
<path d="M157.696 94.768C152.021 94.768 147.605 92.848 144.448 89.008C141.291 85.1253 139.712 79.4293 139.712 71.92C139.712 64.4107 141.291 58.6507 144.448 54.64C147.605 50.5867 152.021 48.56 157.696 48.56C161.451 48.56 164.587 49.4133 167.104 51.12C169.664 52.8267 171.648 55.2373 173.056 58.352L168.704 60.976C167.808 58.672 166.443 56.8373 164.608 55.472C162.773 54.064 160.469 53.36 157.696 53.36C155.776 53.36 154.048 53.7227 152.512 54.448C151.019 55.1733 149.739 56.2187 148.672 57.584C147.648 58.9067 146.859 60.5067 146.304 62.384C145.749 64.2187 145.472 66.288 145.472 68.592V75.248C145.472 79.856 146.539 83.4613 148.672 86.064C150.805 88.6667 153.813 89.968 157.696 89.968C160.555 89.968 162.944 89.2427 164.864 87.792C166.784 86.2987 168.192 84.336 169.088 81.904L173.376 84.592C171.968 87.7493 169.941 90.2453 167.296 92.08C164.651 93.872 161.451 94.768 157.696 94.768ZM193.67 94.768C191.451 94.768 189.425 94.3627 187.59 93.552C185.755 92.7413 184.177 91.5893 182.854 90.096C181.574 88.56 180.571 86.7467 179.846 84.656C179.121 82.5227 178.758 80.1333 178.758 77.488C178.758 74.8853 179.121 72.5173 179.846 70.384C180.571 68.2507 181.574 66.4373 182.854 64.944C184.177 63.408 185.755 62.2347 187.59 61.424C189.425 60.6133 191.451 60.208 193.67 60.208C195.889 60.208 197.894 60.6133 199.686 61.424C201.521 62.2347 203.099 63.408 204.422 64.944C205.745 66.4373 206.769 68.2507 207.494 70.384C208.219 72.5173 208.582 74.8853 208.582 77.488C208.582 80.1333 208.219 82.5227 207.494 84.656C206.769 86.7467 205.745 88.56 204.422 90.096C203.099 91.5893 201.521 92.7413 199.686 93.552C197.894 94.3627 195.889 94.768 193.67 94.768ZM193.67 90.224C196.443 90.224 198.705 89.3707 200.454 87.664C202.203 85.9573 203.078 83.3547 203.078 79.856V75.12C203.078 71.6213 202.203 69.0187 200.454 67.312C198.705 65.6053 196.443 64.752 193.67 64.752C190.897 64.752 188.635 65.6053 186.886 67.312C185.137 69.0187 184.262 71.6213 184.262 75.12V79.856C184.262 83.3547 185.137 85.9573 186.886 87.664C188.635 89.3707 190.897 90.224 193.67 90.224ZM238.123 88.624H237.867C235.861 92.72 232.64 94.768 228.203 94.768C226.155 94.768 224.299 94.3627 222.635 93.552C220.971 92.7413 219.541 91.5893 218.347 90.096C217.195 88.6027 216.299 86.7893 215.659 84.656C215.061 82.5227 214.763 80.1333 214.763 77.488C214.763 74.8427 215.061 72.4533 215.659 70.32C216.299 68.1867 217.195 66.3733 218.347 64.88C219.541 63.3867 220.971 62.2347 222.635 61.424C224.299 60.6133 226.155 60.208 228.203 60.208C230.507 60.208 232.469 60.72 234.091 61.744C235.755 62.7253 237.013 64.2613 237.867 66.352H238.123V46.64H243.243V94H238.123V88.624ZM229.611 90.16C230.763 90.16 231.851 90.0107 232.875 89.712C233.941 89.4133 234.859 88.9867 235.627 88.432C236.395 87.8347 236.992 87.1307 237.419 86.32C237.888 85.4667 238.123 84.5067 238.123 83.44V71.152C238.123 70.256 237.888 69.424 237.419 68.656C236.992 67.8453 236.395 67.1627 235.627 66.608C234.859 66.0533 233.941 65.6267 232.875 65.328C231.851 64.9867 230.763 64.816 229.611 64.816C226.709 64.816 224.427 65.7333 222.763 67.568C221.099 69.36 220.267 71.728 220.267 74.672V80.304C220.267 83.248 221.099 85.6373 222.763 87.472C224.427 89.264 226.709 90.16 229.611 90.16ZM266.544 94.768C264.282 94.768 262.234 94.3627 260.4 93.552C258.608 92.7413 257.05 91.5893 255.728 90.096C254.448 88.56 253.445 86.7467 252.72 84.656C252.037 82.5227 251.696 80.1333 251.696 77.488C251.696 74.8853 252.037 72.5173 252.72 70.384C253.445 68.2507 254.448 66.4373 255.728 64.944C257.05 63.408 258.608 62.2347 260.4 61.424C262.234 60.6133 264.282 60.208 266.544 60.208C268.762 60.208 270.746 60.6133 272.496 61.424C274.245 62.2347 275.738 63.3653 276.976 64.816C278.213 66.224 279.152 67.9093 279.792 69.872C280.474 71.8347 280.816 73.9893 280.816 76.336V78.768H257.072V80.304C257.072 81.712 257.285 83.0347 257.712 84.272C258.181 85.4667 258.821 86.512 259.632 87.408C260.485 88.304 261.509 89.008 262.704 89.52C263.941 90.032 265.328 90.288 266.864 90.288C268.954 90.288 270.768 89.7973 272.304 88.816C273.882 87.8347 275.098 86.4267 275.952 84.592L279.6 87.216C278.533 89.4773 276.869 91.312 274.608 92.72C272.346 94.0853 269.658 94.768 266.544 94.768ZM266.544 64.496C265.136 64.496 263.856 64.752 262.704 65.264C261.552 65.7333 260.549 66.416 259.696 67.312C258.885 68.208 258.245 69.2747 257.776 70.512C257.306 71.7067 257.072 73.0293 257.072 74.48V74.928H275.312V74.224C275.312 71.28 274.501 68.9333 272.88 67.184C271.301 65.392 269.189 64.496 266.544 64.496ZM291.212 46C292.577 46 293.558 46.3627 294.156 47.088C294.796 47.7707 295.116 48.6667 295.116 49.776V50.672C295.116 52.4213 294.604 54.3627 293.58 56.496C292.556 58.5867 291.126 60.4213 289.292 62H285.004C286.284 60.6347 287.308 59.3547 288.076 58.16C288.886 56.9227 289.462 55.5573 289.804 54.064C288.95 53.8507 288.31 53.4453 287.884 52.848C287.5 52.2507 287.308 51.5253 287.308 50.672V49.776C287.308 48.6667 287.606 47.7707 288.204 47.088C288.844 46.3627 289.846 46 291.212 46ZM312.424 94C310.632 94 309.266 93.5093 308.328 92.528C307.432 91.504 306.984 90.1813 306.984 88.56V65.456H301.544V60.976H304.616C305.725 60.976 306.472 60.7627 306.856 60.336C307.282 59.8667 307.496 59.0773 307.496 57.968V51.824H312.104V60.976H319.336V65.456H312.104V89.52H318.824V94H312.424ZM328.077 94V49.328H333.453V89.264H352.461V94H328.077ZM383.565 94C381.645 94 380.258 93.488 379.405 92.464C378.594 91.44 378.082 90.16 377.869 88.624H377.549C376.824 90.672 375.629 92.208 373.965 93.232C372.301 94.256 370.317 94.768 368.013 94.768C364.514 94.768 361.784 93.872 359.821 92.08C357.901 90.288 356.941 87.856 356.941 84.784C356.941 81.6693 358.072 79.28 360.333 77.616C362.637 75.952 366.2 75.12 371.021 75.12H377.549V71.856C377.549 69.5093 376.909 67.7173 375.629 66.48C374.349 65.2427 372.386 64.624 369.741 64.624C367.736 64.624 366.05 65.072 364.685 65.968C363.362 66.864 362.253 68.0587 361.357 69.552L358.285 66.672C359.181 64.88 360.61 63.3653 362.573 62.128C364.536 60.848 367.01 60.208 369.997 60.208C374.008 60.208 377.122 61.1893 379.341 63.152C381.56 65.1147 382.669 67.8453 382.669 71.344V89.52H386.445V94H383.565ZM368.845 90.416C370.125 90.416 371.298 90.2667 372.365 89.968C373.432 89.6693 374.349 89.2427 375.117 88.688C375.885 88.1333 376.482 87.4933 376.909 86.768C377.336 86.0427 377.549 85.2533 377.549 84.4V78.96H370.765C367.821 78.96 365.666 79.3867 364.301 80.24C362.978 81.0933 362.317 82.3307 362.317 83.952V85.296C362.317 86.9173 362.893 88.176 364.045 89.072C365.24 89.968 366.84 90.416 368.845 90.416ZM393.753 46.64H398.873V66.352H399.129C399.982 64.2613 401.219 62.7253 402.841 61.744C404.505 60.72 406.489 60.208 408.793 60.208C410.841 60.208 412.697 60.6133 414.361 61.424C416.025 62.2347 417.433 63.3867 418.585 64.88C419.779 66.3733 420.675 68.1867 421.273 70.32C421.913 72.4533 422.233 74.8427 422.233 77.488C422.233 80.1333 421.913 82.5227 421.273 84.656C420.675 86.7893 419.779 88.6027 418.585 90.096C417.433 91.5893 416.025 92.7413 414.361 93.552C412.697 94.3627 410.841 94.768 408.793 94.768C404.313 94.768 401.091 92.72 399.129 88.624H398.873V94H393.753V46.64ZM407.385 90.16C410.286 90.16 412.569 89.264 414.233 87.472C415.897 85.6373 416.729 83.248 416.729 80.304V74.672C416.729 71.728 415.897 69.36 414.233 67.568C412.569 65.7333 410.286 64.816 407.385 64.816C406.233 64.816 405.123 64.9867 404.057 65.328C403.033 65.6267 402.137 66.0533 401.369 66.608C400.601 67.1627 399.982 67.8453 399.513 68.656C399.086 69.424 398.873 70.256 398.873 71.152V83.44C398.873 84.5067 399.086 85.4667 399.513 86.32C399.982 87.1307 400.601 87.8347 401.369 88.432C402.137 88.9867 403.033 89.4133 404.057 89.712C405.123 90.0107 406.233 90.16 407.385 90.16Z" fill="white"/>
</svg>
