<svg width="1156" height="126" viewBox="0 0 1156 126" fill="none" xmlns="http://www.w3.org/2000/svg">
<rect width="9" height="126" fill="white"/>
<rect x="21" width="9" height="126" fill="white"/>
<rect x="54" width="9" height="126" fill="white"/>
<rect x="71" width="9" height="126" fill="white"/>
<rect x="14" width="2" height="126" fill="white"/>
<rect x="35" width="2" height="126" fill="white"/>
<rect x="42" width="2" height="126" fill="white"/>
<rect x="66" width="2" height="126" fill="white"/>
<rect x="49" width="2" height="126" fill="white"/>
<rect x="83" width="9" height="126" fill="white"/>
<rect x="104" width="9" height="126" fill="white"/>
<rect x="137" width="9" height="126" fill="white"/>
<rect x="154" width="9" height="126" fill="white"/>
<rect x="97" width="2" height="126" fill="white"/>
<rect x="118" width="2" height="126" fill="white"/>
<rect x="125" width="2" height="126" fill="white"/>
<rect x="149" width="2" height="126" fill="white"/>
<rect x="132" width="2" height="126" fill="white"/>
<rect x="166" width="9" height="126" fill="white"/>
<rect x="187" width="9" height="126" fill="white"/>
<rect x="220" width="9" height="126" fill="white"/>
<rect x="237" width="9" height="126" fill="white"/>
<rect x="180" width="2" height="126" fill="white"/>
<rect x="201" width="2" height="126" fill="white"/>
<rect x="208" width="2" height="126" fill="white"/>
<rect x="232" width="2" height="126" fill="white"/>
<rect x="215" width="2" height="126" fill="white"/>
<rect x="249" width="9" height="126" fill="white"/>
<rect x="270" width="9" height="126" fill="white"/>
<rect x="303" width="9" height="126" fill="white"/>
<rect x="320" width="9" height="126" fill="white"/>
<rect x="263" width="2" height="126" fill="white"/>
<rect x="284" width="2" height="126" fill="white"/>
<rect x="291" width="2" height="126" fill="white"/>
<rect x="315" width="2" height="126" fill="white"/>
<rect x="298" width="2" height="126" fill="white"/>
<rect x="332" width="9" height="126" fill="white"/>
<rect x="353" width="9" height="126" fill="white"/>
<rect x="386" width="9" height="126" fill="white"/>
<rect x="403" width="9" height="126" fill="white"/>
<rect x="346" width="2" height="126" fill="white"/>
<rect x="367" width="2" height="126" fill="white"/>
<rect x="374" width="2" height="126" fill="white"/>
<rect x="398" width="2" height="126" fill="white"/>
<rect x="381" width="2" height="126" fill="white"/>
<rect x="415" width="9" height="126" fill="white"/>
<rect x="436" width="9" height="126" fill="white"/>
<rect x="469" width="9" height="126" fill="white"/>
<rect x="486" width="9" height="126" fill="white"/>
<rect x="429" width="2" height="126" fill="white"/>
<rect x="450" width="2" height="126" fill="white"/>
<rect x="457" width="2" height="126" fill="white"/>
<rect x="481" width="2" height="126" fill="white"/>
<rect x="464" width="2" height="126" fill="white"/>
<rect x="498" width="9" height="126" fill="white"/>
<rect x="519" width="9" height="126" fill="white"/>
<rect x="552" width="9" height="126" fill="white"/>
<rect x="569" width="9" height="126" fill="white"/>
<rect x="512" width="2" height="126" fill="white"/>
<rect x="533" width="2" height="126" fill="white"/>
<rect x="540" width="2" height="126" fill="white"/>
<rect x="564" width="2" height="126" fill="white"/>
<rect x="547" width="2" height="126" fill="white"/>
<rect x="581" width="9" height="126" fill="white"/>
<rect x="602" width="9" height="126" fill="white"/>
<rect x="635" width="9" height="126" fill="white"/>
<rect x="652" width="9" height="126" fill="white"/>
<rect x="595" width="2" height="126" fill="white"/>
<rect x="616" width="2" height="126" fill="white"/>
<rect x="623" width="2" height="126" fill="white"/>
<rect x="647" width="2" height="126" fill="white"/>
<rect x="630" width="2" height="126" fill="white"/>
<rect x="666" width="9" height="126" fill="white"/>
<rect x="687" width="9" height="126" fill="white"/>
<rect x="720" width="9" height="126" fill="white"/>
<rect x="737" width="9" height="126" fill="white"/>
<rect x="680" width="2" height="126" fill="white"/>
<rect x="701" width="2" height="126" fill="white"/>
<rect x="708" width="2" height="126" fill="white"/>
<rect x="732" width="2" height="126" fill="white"/>
<rect x="715" width="2" height="126" fill="white"/>
<rect x="749" width="9" height="126" fill="white"/>
<rect x="770" width="9" height="126" fill="white"/>
<rect x="803" width="9" height="126" fill="white"/>
<rect x="820" width="9" height="126" fill="white"/>
<rect x="763" width="2" height="126" fill="white"/>
<rect x="784" width="2" height="126" fill="white"/>
<rect x="791" width="2" height="126" fill="white"/>
<rect x="815" width="2" height="126" fill="white"/>
<rect x="798" width="2" height="126" fill="white"/>
<rect x="837" width="9" height="126" fill="white"/>
<rect x="858" width="9" height="126" fill="white"/>
<rect x="891" width="9" height="126" fill="white"/>
<rect x="908" width="9" height="126" fill="white"/>
<rect x="851" width="2" height="126" fill="white"/>
<rect x="872" width="2" height="126" fill="white"/>
<rect x="879" width="2" height="126" fill="white"/>
<rect x="903" width="2" height="126" fill="white"/>
<rect x="886" width="2" height="126" fill="white"/>
<rect x="927" width="9" height="126" fill="white"/>
<rect x="948" width="9" height="126" fill="white"/>
<rect x="981" width="9" height="126" fill="white"/>
<rect x="998" width="9" height="126" fill="white"/>
<rect x="941" width="2" height="126" fill="white"/>
<rect x="962" width="2" height="126" fill="white"/>
<rect x="969" width="2" height="126" fill="white"/>
<rect x="993" width="2" height="126" fill="white"/>
<rect x="976" width="2" height="126" fill="white"/>
<rect x="1010" width="9" height="126" fill="white"/>
<rect x="1031" width="9" height="126" fill="white"/>
<rect x="1064" width="9" height="126" fill="white"/>
<rect x="1081" width="9" height="126" fill="white"/>
<rect x="1024" width="2" height="126" fill="white"/>
<rect x="1045" width="2" height="126" fill="white"/>
<rect x="1052" width="2" height="126" fill="white"/>
<rect x="1076" width="2" height="126" fill="white"/>
<rect x="1059" width="2" height="126" fill="white"/>
<rect x="1093" width="9" height="126" fill="white"/>
<rect x="1114" width="9" height="126" fill="white"/>
<rect x="1147" width="9" height="126" fill="white"/>
<rect x="1107" width="2" height="126" fill="white"/>
<rect x="1128" width="2" height="126" fill="white"/>
<rect x="1135" width="2" height="126" fill="white"/>
<rect x="1142" width="2" height="126" fill="white"/>
</svg>
