<svg width="130" height="787" viewBox="0 0 130 787" fill="none" xmlns="http://www.w3.org/2000/svg">
<path d="M100 50L25 93.3013L25 6.69873L100 50Z" fill="#C2FF17"/>
<path d="M26 119L101 75.6987V162.301L26 119Z" fill="#C2FF17"/>
<path d="M100 187L25 230.301L25 143.699L100 187Z" fill="#C2FF17"/>
<path d="M26 256L101 212.699V299.301L26 256Z" fill="#C2FF17"/>
<path d="M100 315L25 358.301L25 271.699L100 315Z" fill="#C2FF17"/>
<path d="M26 384L101 340.699V427.301L26 384Z" fill="#C2FF17"/>
<path d="M104 456L29 499.301L29 412.699L104 456Z" fill="#C2FF17"/>
<path d="M30 525L105 481.699V568.301L30 525Z" fill="#C2FF17"/>
<path d="M105 593L30 636.301L30 549.699L105 593Z" fill="#C2FF17"/>
<path d="M28 662L103 618.699V705.301L28 662Z" fill="#C2FF17"/>
<path d="M105 737L30 780.301L30 693.699L105 737Z" fill="#C2FF17"/>
</svg>
